<svg xmlns="http://www.w3.org/2000/svg" width="280" height="280" fill="none"><mask id="a" width="200" height="200" x="40" y="40" maskUnits="userSpaceOnUse" style="mask-type:alpha"><path fill="#000" d="M237.769 203.511c.517.216.975.543 1.34.955a3.483 3.483 0 0 1 .82 3.029c-2.14 9.964-8.027 18.825-16.54 24.896-6.825 4.681-14.939 7.327-23.325 7.609H55.404a3.86 3.86 0 0 1-1.967-.526 3.64 3.64 0 0 1-1.386-1.439L40.39 215.676a3.43 3.43 0 0 1 .15-3.429c.319-.511.765-.937 1.298-1.243a3.9 3.9 0 0 1 1.756-.508l192.535-7.28a3.8 3.8 0 0 1 1.641.295M56.635 195.249a67.6 67.6 0 0 1 25.518-3.764 67.3 67.3 0 0 1 25.036 6.051 3.777 3.777 0 0 0 3.018.071 3.6 3.6 0 0 0 1.287-.832c.36-.364.633-.8.8-1.276a171 171 0 0 0 9.352-37.434c4.009-32.508-1.004-65.454-14.531-95.51a3.66 3.66 0 0 0-1.692-1.702 3.9 3.9 0 0 0-2.428-.334 3.8 3.8 0 0 0-2.123 1.175 3.52 3.52 0 0 0-.911 2.183c-.97 45.801-17.665 90.017-47.5 125.799a3.5 3.5 0 0 0-.766 2.124c-.011.768.234 1.52.702 2.144a3.74 3.74 0 0 0 1.894 1.323 3.9 3.9 0 0 0 2.344-.018"/><path fill="#000" d="M129.318 98.132c7.949 31.833 6.046 65.198-5.477 96.01a3.46 3.46 0 0 0-.049 2.076 3.6 3.6 0 0 0 1.154 1.757 3.894 3.894 0 0 0 4.111.525c18.155-8.851 38.132-13.731 58.491-14.289a141.6 141.6 0 0 1 38.52 4.215c.582.139 1.19.143 1.774.01a3.8 3.8 0 0 0 1.582-.77 3.6 3.6 0 0 0 1.038-1.38 3.5 3.5 0 0 0 .263-1.682c-6.409-69.375-61.636-126.618-121.639-144.444a3.9 3.9 0 0 0-2.258.014 3.75 3.75 0 0 0-1.84 1.254 3.5 3.5 0 0 0-.755 2.04 3.5 3.5 0 0 0 .605 2.086c11.339 16 19.628 33.802 24.48 52.578"/></mask><g mask="url(#a)"><path fill="#750787" d="M31 40.28h327.593V239.72H31z"/><path fill="#004DFF" d="M31 40.28h327.593V206.48H31z"/><path fill="#008026" d="M31 40.28h327.593v132.96H31z"/><path fill="#FFED00" d="M31 40.28h327.593V140H31z"/><path fill="#FF8C00" d="M31 40.28h327.593v66.48H31z"/><path fill="#E40303" d="M31 40.28h327.593v33.24H31z"/><path fill="#000" d="m31-10 156.371 150L31 290z"/><path fill="#613915" d="M31 15.153 161.164 140 31 264.847z"/><path fill="#74D7EE" d="M31 239.721V40.279L135.393 140z"/><path fill="#FFAFC8" d="M31 214.594V65.406L108.53 140z"/><path fill="#fff" d="M31 90.532 82.924 140 31 189.468z"/></g></svg>